HIERARCHY
ROOT Hips
{
 OFFSET 0.000000 0.000000 0.000000
 CHANNELS 6 Xposition Yposition Zposition Yrotation Xrotation Zrotation
 JOINT Chest
 {
  OFFSET 0.000000 9.588913 -0.003946
  CHANNELS 3 Yrotation Xrotation Zrotation
  JOINT Chest2
  {
   OFFSET 0.000000 9.541882 0.008053
   CHANNELS 3 Yrotation Xrotation Zrotation
   JOINT Chest3
   {
    OFFSET 0.000000 9.501360 0.000000
    CHANNELS 3 Yrotation Xrotation Zrotation
    JOINT Chest4
    {
     OFFSET 0.000000 9.491660 0.000000
     CHANNELS 3 Yrotation Xrotation Zrotation
     JOINT Neck
     {
      OFFSET 0.000000 14.331917 0.000000
      CHANNELS 3 Yrotation Xrotation Zrotation
      JOINT Head
      {
       OFFSET 0.000000 8.884799 0.017034
       CHANNELS 3 Yrotation Xrotation Zrotation
       End Site
       {
        OFFSET 0.000000 16.896195 0.008993
       }
      }
     }
     JOINT RightCollar
     {
      OFFSET -2.923010 9.499495 0.000000
      CHANNELS 3 Yrotation Xrotation Zrotation
      JOINT RightShoulder
      {
       OFFSET -13.795216 0.000000 0.000000
       CHANNELS 3 Yrotation Xrotation Zrotation
       JOINT RightElbow
       {
        OFFSET -30.272209 0.000000 0.000000
        CHANNELS 3 Yrotation Xrotation Zrotation
        JOINT RightWrist
        {
         OFFSET -24.478199 0.000000 0.000000
         CHANNELS 3 Yrotation Xrotation Zrotation
         End Site
         {
          OFFSET -18.090752 0.000000 0.000000
         }
        }
       }
      }
     }
     JOINT LeftCollar
     {
      OFFSET 2.923010 9.499495 0.000000
      CHANNELS 3 Yrotation Xrotation Zrotation
      JOINT LeftShoulder
      {
       OFFSET 13.795216 0.000000 0.000000
       CHANNELS 3 Yrotation Xrotation Zrotation
       JOINT LeftElbow
       {
        OFFSET 30.272209 0.000000 0.000000
        CHANNELS 3 Yrotation Xrotation Zrotation
        JOINT LeftWrist
        {
         OFFSET 24.478199 0.000000 0.000000
         CHANNELS 3 Yrotation Xrotation Zrotation
         End Site
         {
          OFFSET 18.090752 0.000000 0.000000
         }
        }
       }
      }
     }
    }
   }
  }
 }
 JOINT RightHip
 {
  OFFSET -7.826875 0.019532 0.001973
  CHANNELS 3 Yrotation Xrotation Zrotation
  JOINT RightKnee
  {
   OFFSET 0.000000 -40.546152 -0.001885
   CHANNELS 3 Yrotation Xrotation Zrotation
   JOINT RightAnkle
   {
    OFFSET 0.000000 -39.417092 -0.003189
    CHANNELS 3 Yrotation Xrotation Zrotation
    JOINT RightToe
    {
     OFFSET 0.000000 -7.579396 17.243563
     CHANNELS 3 Yrotation Xrotation Zrotation
     End Site
     {
      OFFSET 0.000000 -1.500329 6.694466
     }
    }
   }
  }
 }
 JOINT LeftHip
 {
  OFFSET 7.826875 0.019532 0.001973
  CHANNELS 3 Yrotation Xrotation Zrotation
  JOINT LeftKnee
  {
   OFFSET 0.000000 -40.546152 -0.001885
   CHANNELS 3 Yrotation Xrotation Zrotation
   JOINT LeftAnkle
   {
    OFFSET 0.000000 -39.417092 -0.003189
    CHANNELS 3 Yrotation Xrotation Zrotation
    JOINT LeftToe
    {
     OFFSET 0.000000 -7.579396 17.243563
     CHANNELS 3 Yrotation Xrotation Zrotation
     End Site
     {
      OFFSET 0.000000 -1.500329 6.694466
     }
    }
   }
  }
 }
}
MOTION
Frames: 9
Frame Time: 0.008333
-3.808575 89.208831 3.575801 -144.863806 -4.332328 0.341254 -2.071695 10.976590 4.466178 -1.325113 6.246133 2.484201 -1.616072 7.816101 3.087085 -1.325094 6.246189 2.484196 2.753909 23.843551 -7.100990 6.681146 9.067473 -13.430859 9.179823 -0.371833 -4.978615 5.776424 -32.700636 70.994980 33.384972 -17.213947 20.570731 -1.657329 -8.087996 -0.251301 -12.544499 -11.522331 1.763219 -9.705056 -25.787599 -60.330016 -16.660969 -4.017418 -22.851937 3.733938 -10.318352 -5.338627 -6.226926 0.589845 -0.216975 0.897637 2.788897 1.170021 -3.390659 0.933454 -0.852752 -0.033566 0.182311 -0.011545 8.984115 0.532790 0.527558 -0.373136 8.056400 0.410315 8.207800 -3.972046 -1.264634 0.054758 -0.092502 0.029259
-3.815197 89.200768 3.675527 -145.012840 -4.380673 0.322695 -2.191034 11.045672 4.590138 -1.395897 6.283254 2.561084 -1.703117 7.863227 3.182021 -1.395878 6.283307 2.561077 2.761464 23.805448 -7.363862 6.760682 9.028038 -13.907114 9.179804 -0.178719 -4.944485 5.910908 -32.865899 71.232953 33.364007 -17.445252 20.498377 -1.505084 -8.191927 -0.427537 -12.674548 -11.547251 1.720886 -9.708314 -25.749871 -60.333025 -16.683366 -3.897387 -22.496081 3.789585 -10.107115 -5.682658 -6.189435 0.559710 -0.237369 0.912676 2.798829 1.177265 -3.313743 1.000768 -0.819992 -0.034614 0.180362 -0.015862 8.956312 0.479457 0.499676 -0.340054 8.203540 0.424372 8.327696 -4.052579 -1.236210 0.054294 -0.090040 0.023964
-3.822425 89.192951 3.778839 -145.162188 -4.427258 0.323898 -2.304365 11.118593 4.694945 -1.461689 6.322393 2.636699 -1.783910 7.912863 3.275443 -1.461671 6.322441 2.636692 2.762782 23.759854 -7.622960 6.829047 8.974236 -14.375758 9.173057 0.025255 -4.905498 6.021494 -33.043542 71.476473 33.345681 -17.669937 20.445490 -1.363396 -8.290132 -0.590955 -12.809481 -11.576794 1.688018 -9.742521 -25.718465 -60.327674 -16.691909 -3.828536 -22.151542 3.833531 -9.905533 -6.025130 -6.149526 0.523319 -0.276709 0.928995 2.804564 1.183095 -3.246159 1.090416 -0.786509 -0.035238 0.162042 -0.019151 8.933624 0.421869 0.450305 -0.304945 8.362870 0.435609 8.450011 -4.161458 -1.205724 0.055097 -0.065583 0.021108
-3.825651 89.185222 3.882951 -145.310552 -4.469298 0.311841 -2.405898 11.193930 4.814818 -1.523129 6.362764 2.710042 -1.859272 7.964025 3.366081 -1.523112 6.362808 2.710034 2.760626 23.709301 -7.877628 6.890807 8.910968 -14.836114 9.164797 0.240432 -4.866263 6.093238 -33.239045 71.741684 33.324221 -17.875555 20.408502 -1.245558 -8.374510 -0.727225 -12.944315 -11.602938 1.661139 -9.777190 -25.710053 -60.327995 -16.688141 -3.805613 -21.833023 3.870931 -9.730628 -6.357564 -6.112421 0.483482 -0.301801 0.946562 2.811907 1.189680 -3.164806 1.162271 -0.754816 -0.036333 0.160251 -0.021109 8.916965 0.353435 0.415719 -0.271767 8.518603 0.442516 8.579037 -4.240049 -1.174468 0.055856 -0.063049 0.020416
-3.827738 89.177495 3.989906 -145.458152 -4.506333 0.306558 -2.499073 11.270711 4.930869 -1.580182 6.404019 2.779549 -1.929190 8.016266 3.451983 -1.580166 6.404057 2.779541 2.756123 23.655360 -8.126212 6.947452 8.841035 -15.285379 9.155988 0.463242 -4.825727 6.117343 -33.458642 72.040091 33.289209 -18.045674 20.386309 -1.154366 -8.449426 -0.832678 -13.082537 -11.615442 1.644285 -9.770143 -25.733712 -60.347430 -16.686711 -3.823349 -21.561121 3.906767 -9.593280 -6.656238 -6.078565 0.434555 -0.336638 0.965277 2.822024 1.196145 -3.061155 1.234233 -0.720699 -0.036400 0.159674 -0.021168 8.898811 0.276761 0.376137 -0.242779 8.677873 0.443897 8.710854 -4.316204 -1.142248 0.057239 -0.061665 0.021083
-3.828781 89.169700 4.099467 -145.607352 -4.539735 0.306740 -2.582361 11.349766 5.043762 -1.631629 6.446885 2.845912 -1.992122 8.070486 3.534034 -1.631614 6.446919 2.845903 2.746942 23.597083 -8.369549 6.995160 8.762372 -15.724571 9.142085 0.685555 -4.780368 6.101504 -33.701723 72.364379 33.231001 -18.173496 20.380183 -1.088169 -8.519150 -0.917551 -13.234439 -11.616011 1.641865 -9.707552 -25.779459 -60.385693 -16.693141 -3.891345 -21.342355 3.932787 -9.499213 -6.905170 -6.043832 0.377899 -0.379114 0.986727 2.835003 1.203710 -2.945404 1.306000 -0.685463 -0.035421 0.160338 -0.020077 8.870703 0.195093 0.331958 -0.218211 8.837351 0.439785 8.858185 -4.389071 -1.108525 0.059224 -0.060981 0.022126
-3.828642 89.161784 4.211242 -145.759478 -4.570582 0.309288 -2.657467 11.430718 5.153828 -1.678167 6.491585 2.910144 -2.048918 8.126971 3.613491 -1.678153 6.491617 2.910135 2.733331 23.533713 -8.610076 7.035085 8.673854 -16.158197 9.126409 0.905169 -4.729936 6.060335 -33.960281 72.703079 33.154878 -18.257287 20.380984 -1.042182 -8.582182 -0.994262 -13.392914 -11.610336 1.653276 -9.613203 -25.831264 -60.435955 -16.703959 -4.018979 -21.158941 3.944383 -9.440834 -7.104324 -6.005053 0.314939 -0.423776 1.013465 2.850448 1.213146 -2.835527 1.378711 -0.651372 -0.034344 0.161033 -0.018803 8.829070 0.109532 0.285339 -0.193597 8.996761 0.433833 9.019698 -4.459347 -1.076201 0.060753 -0.060511 0.023775
-3.827261 89.153679 4.325286 -145.914991 -4.597368 0.312987 -2.725028 11.512559 5.260173 -1.720084 6.537407 2.972228 -2.099946 8.184825 3.690331 -1.720070 6.537434 2.972218 2.715418 23.465322 -8.848898 7.067750 8.575725 -16.588280 9.108992 1.124691 -4.677668 6.013629 -34.222264 73.045031 33.076035 -18.307283 20.377330 -1.003807 -8.639840 -1.071628 -13.549961 -11.603293 1.680169 -9.517688 -25.877809 -60.497303 -16.718632 -4.194124 -20.982937 3.945989 -9.398851 -7.256213 -5.960906 0.243445 -0.466848 1.043593 2.869781 1.223102 -2.740355 1.452259 -0.619978 -0.034579 0.161287 -0.017279 8.775769 0.015661 0.235875 -0.161438 9.161287 0.430373 9.186973 -4.528466 -1.047960 0.061831 -0.061141 0.026454
-3.825091 89.145354 4.441578 -146.073952 -4.619874 0.319131 -2.780007 11.596118 5.362921 -1.754640 6.584327 3.032251 -2.141775 8.243997 3.764716 -1.754628 6.584349 3.032241 2.688003 23.391754 -9.085268 7.083752 8.466723 -17.012229 9.075240 1.343716 -4.627548 5.978101 -34.476621 73.379677 33.008636 -18.345698 20.363230 -0.956116 -8.693958 -1.158581 -13.722377 -11.599758 1.726899 -9.439561 -25.917801 -60.567388 -16.733803 -4.390648 -20.791479 3.941088 -9.357444 -7.368204 -5.910716 0.162728 -0.508556 1.072582 2.894462 1.230777 -2.657420 1.524838 -0.589590 -0.036622 0.161885 -0.015831 8.717612 -0.086281 0.183065 -0.119388 9.330456 0.428906 9.350982 -4.595679 -1.022993 0.063113 -0.063509 0.030277
